<svg version="1.1" id="Layer_1" xmlns="http://www.w3.org/2000/svg" xmlns:xlink="http://www.w3.org/1999/xlink" x="0px" y="0px"
	 width="100%" viewBox="0 0 389 284" enable-background="new 0 0 389 284" xml:space="preserve">
<path fill="#010101" opacity="1.000000" stroke="none" 
	d="
M1.000000,200.000000 
	C1.000000,133.688339 1.000000,67.376694 1.000000,1.032518 
	C130.602600,1.032518 260.205231,1.032518 389.903931,1.032518 
	C389.903931,95.571587 389.903931,190.143311 389.903931,284.857513 
	C260.333435,284.857513 130.666748,284.857513 1.000000,284.857513 
	C1.000000,258.920624 1.000000,232.928970 1.308796,206.175934 
	C4.323884,208.022842 7.361936,208.366547 10.808270,206.996368 
	C12.329365,206.391617 14.022896,205.892960 15.636438,205.897934 
	C36.784767,205.963135 58.123547,202.030350 78.973839,209.276840 
	C81.212120,210.054749 84.967979,208.156891 87.223396,206.448669 
	C88.278130,205.649826 88.314651,201.241409 87.264786,200.399811 
	C85.067734,198.638550 81.880051,198.028610 79.018936,197.235367 
	C78.235565,197.018173 77.192200,197.949661 76.225883,198.146530 
	C70.742935,199.263596 65.245262,201.238678 59.756096,201.227341 
	C40.169968,201.186890 20.585251,200.464386 1.000000,200.000000 
M187.927231,175.673126 
	C187.784668,174.237976 187.642105,172.802841 187.481308,171.184097 
	C176.835770,171.678009 166.587875,172.153473 155.931351,172.647903 
	C155.645645,170.389694 155.389496,168.365097 155.088943,165.989548 
	C166.100113,165.320419 176.654526,164.679062 187.533066,164.018005 
	C187.098999,159.339294 186.711929,155.167191 186.299484,150.721725 
	C170.910812,151.699341 156.182159,152.635040 141.154633,153.589722 
	C141.719315,164.313126 142.258484,174.552109 142.782974,184.512146 
	C154.057861,184.512146 164.920685,184.512146 175.726288,184.512146 
	C175.726288,186.645050 175.726288,188.593719 175.726288,191.594666 
	C164.855484,191.594666 154.141464,191.594666 143.092499,191.594666 
	C143.460419,195.784973 143.733353,198.893616 143.977158,201.670258 
	C159.132187,201.670258 174.008667,201.670258 189.237991,201.670258 
	C188.786819,192.856598 188.370789,184.728989 187.927231,175.673126 
M192.286407,187.502487 
	C192.286407,198.057800 192.286407,208.613113 192.286407,218.964386 
	C196.786514,218.964386 200.872360,218.964386 205.162903,218.964386 
	C205.162903,213.249878 205.162903,207.830704 205.162903,201.971771 
	C214.759323,201.971771 224.141800,201.971771 234.293610,201.971771 
	C234.293610,189.696335 234.293610,177.860748 234.293610,166.028687 
	C220.682617,166.028687 206.921417,166.028687 192.298965,166.028687 
	C192.298965,172.960968 192.298965,179.732193 192.286407,187.502487 
M248.300140,130.134659 
	C248.300140,124.853439 248.300140,119.572212 248.300140,114.131912 
	C258.487579,114.131912 268.096252,114.131912 278.186218,114.131912 
	C278.483826,109.809875 278.770538,105.645988 279.098114,100.888290 
	C264.030243,100.888290 249.783981,100.888290 235.263474,100.888290 
	C235.263474,115.466187 235.263474,130.040833 235.263474,144.651413 
	C249.781006,144.651413 264.149628,144.651413 278.731812,144.651413 
	C278.511536,140.330063 278.309753,136.371140 278.085571,131.973038 
	C275.951202,131.973038 273.976715,132.037231 272.007599,131.961746 
	C264.223206,131.663254 256.440460,131.320999 248.300140,130.134659 
M227.083893,105.186646 
	C215.983154,105.186646 204.882416,105.186646 193.415039,105.186646 
	C194.183502,119.193771 194.881958,131.925064 195.579376,144.637192 
	C207.720703,144.637192 219.438873,144.637192 231.477127,144.637192 
	C231.034088,141.312790 230.645966,138.400482 230.212860,135.150543 
	C223.016663,135.150543 216.258240,135.150543 209.220032,135.150543 
	C209.126190,133.189362 209.051147,131.621048 208.935196,129.197937 
	C216.708206,129.197937 224.112305,129.197937 232.005493,129.197937 
	C231.360504,121.249443 230.842926,114.158730 230.121506,107.088821 
	C230.049805,106.386208 228.735229,105.810425 227.083893,105.186646 
M349.113312,167.556702 
	C349.803345,178.958740 350.493378,190.360794 351.172913,201.590042 
	C363.350891,201.590042 375.067810,201.590042 387.107941,201.590042 
	C386.586578,198.244064 386.137268,195.360413 385.628082,192.092712 
	C378.510681,192.092712 371.768097,192.092712 364.902008,192.092712 
	C364.651489,190.212570 364.458954,188.767624 364.182953,186.696259 
	C371.965332,186.349503 379.513916,186.013153 387.392548,185.662109 
	C386.792480,177.666550 386.224762,170.102280 385.670288,162.714172 
	C373.276367,162.714172 361.360626,162.714172 349.077911,162.714172 
	C349.077911,164.364594 349.077911,165.483475 349.113312,167.556702 
M276.543579,196.108093 
	C276.717041,198.021210 276.890533,199.934311 277.034821,201.525253 
	C289.198425,201.525253 300.894501,201.525253 312.791443,201.525253 
	C312.322815,198.260727 311.927094,195.503922 311.445953,192.152039 
	C304.411896,192.152039 297.535522,192.152039 290.374695,192.152039 
	C290.374695,189.964478 290.374695,188.410233 290.374695,186.039612 
	C298.045349,186.039612 305.464478,186.039612 313.219482,186.039612 
	C312.564850,177.616974 311.975647,170.035858 311.411407,162.776550 
	C298.976349,162.776550 287.064575,162.776550 274.714600,162.776550 
	C275.314850,173.987656 275.882080,184.582291 276.543579,196.108093 
M159.012909,122.516472 
	C159.012909,129.977631 159.012909,137.438797 159.012909,144.814178 
	C164.603073,144.814178 169.184021,144.814178 173.532440,144.814178 
	C173.532440,132.809738 173.532440,121.204918 173.532440,109.488907 
	C178.840668,109.731956 184.263123,109.980232 189.987061,110.242310 
	C190.287109,105.277748 190.561432,100.738937 190.866837,95.686081 
	C173.991302,95.686081 157.742203,95.686081 141.461304,95.686081 
	C141.461304,99.839302 141.461304,103.882164 141.461304,107.952492 
	C147.377213,108.335007 152.951508,108.695435 158.999664,109.086502 
	C158.999664,113.572845 158.999664,117.548935 159.012909,122.516472 
M289.994263,144.664841 
	C290.594269,143.327515 291.634888,142.014954 291.711639,140.648254 
	C291.941467,136.556107 291.794342,132.442810 291.794342,128.311829 
	C295.488342,128.311829 298.430450,128.311829 301.756683,128.311829 
	C301.756683,133.974121 301.756683,139.420166 301.756683,144.912415 
	C306.563080,144.912415 310.979523,144.912415 315.589417,144.912415 
	C315.589417,135.500900 315.589417,126.381729 315.589417,116.464516 
	C307.818817,116.464516 300.069824,116.464516 291.917847,116.464516 
	C291.917847,109.264450 291.917847,102.845451 291.917847,96.233780 
	C288.449097,96.233780 285.412903,96.233780 282.315155,96.233780 
	C282.315155,112.633301 282.315155,128.703873 282.315155,144.727005 
	C284.796173,144.727005 286.950043,144.727005 289.994263,144.664841 
M270.888550,173.771530 
	C263.332520,173.771530 255.776474,173.771530 247.816345,173.771530 
	C247.816345,165.915024 247.816345,159.518494 247.816345,153.241669 
	C244.464325,153.241669 241.561050,153.241669 238.447357,153.241669 
	C238.447357,169.616364 238.447357,185.654984 238.447357,201.973206 
	C241.717621,201.817841 244.644760,201.678787 248.102753,201.514511 
	C248.102753,195.869675 248.102753,190.629196 248.102753,185.455505 
	C251.711868,185.455505 254.748657,185.455505 258.172546,185.455505 
	C258.172546,191.233643 258.172546,196.650208 258.172546,201.856964 
	C262.968842,201.856964 267.360901,201.856964 271.710266,201.856964 
	C271.710266,192.391113 271.710266,183.274643 270.888550,173.771530 
M48.319633,113.136711 
	C58.645126,123.234795 68.747208,133.574951 79.356079,143.365982 
	C91.026611,154.136810 98.620445,166.927750 101.162781,182.656296 
	C101.328758,183.683090 101.845245,184.653229 102.572914,186.704773 
	C104.746811,168.498856 100.273140,153.498276 88.447571,141.085236 
	C82.845848,135.205215 76.550552,129.972046 70.437569,124.595818 
	C56.895977,112.686317 43.011139,101.024315 44.623039,80.182304 
	C38.698029,91.813919 41.105667,102.407883 48.319633,113.136711 
M316.126740,168.616638 
	C316.126740,179.569778 316.126740,190.522919 316.126740,201.723053 
	C321.074860,201.723053 325.492554,201.723053 330.243011,201.723053 
	C330.243011,191.880585 330.243011,182.106293 330.243011,172.104309 
	C331.964569,172.104309 333.355560,172.104309 334.869049,172.104309 
	C335.062805,174.381104 335.238617,176.446609 335.398132,178.320892 
	C339.057037,178.320892 342.274780,178.320892 345.763916,178.320892 
	C345.763916,172.651810 345.763916,167.400803 345.763916,162.300201 
	C335.809357,162.300201 326.087372,162.300201 316.123688,162.300201 
	C316.123688,164.361832 316.123688,166.006607 316.126740,168.616638 
M32.672493,172.480698 
	C33.488312,172.329483 34.340996,172.283203 35.114452,172.011414 
	C48.426270,167.334259 61.547859,166.395279 74.462257,173.482315 
	C77.972656,175.408737 81.892647,174.698364 83.551376,171.183594 
	C84.662598,168.828934 84.515648,164.890778 83.232964,162.621246 
	C81.156509,158.947220 77.210197,159.039703 73.545479,160.968353 
	C61.438805,167.339783 48.940670,166.473282 36.420700,162.686478 
	C32.937065,161.632812 29.925735,161.380554 28.350294,164.921906 
	C26.839930,168.317001 28.191654,171.088974 32.672493,172.480698 
M73.374458,95.566460 
	C82.763039,95.881210 92.150223,96.281517 101.541443,96.433533 
	C103.275688,96.461609 105.456703,95.934914 106.620689,94.818726 
	C107.421951,94.050354 107.470985,91.162529 106.697403,90.404381 
	C105.578506,89.307808 103.245903,88.560982 101.716827,88.911484 
	C88.946663,91.838715 76.444801,91.764862 63.976456,87.207100 
	C62.255123,86.577866 58.536667,87.708801 57.753315,89.131721 
	C56.718235,91.011879 56.949791,94.372398 58.018917,96.349113 
	C58.716766,97.639374 61.919334,98.192062 63.908978,98.020493 
	C66.825378,97.769005 69.660362,96.573494 73.374458,95.566460 
M61.881752,64.815430 
	C83.343025,61.141991 104.845573,61.160156 126.408905,63.888889 
	C127.929672,64.081337 129.854340,63.206577 131.135483,62.230148 
	C131.734146,61.773861 131.712631,59.144379 131.157593,58.795399 
	C129.649918,57.847424 127.603172,56.911377 125.952873,57.164082 
	C105.435677,60.305817 84.997124,60.432026 64.523125,56.665791 
	C62.634769,56.318428 60.332344,58.222042 58.222187,59.080437 
	C59.184608,60.922573 60.147030,62.764709 61.881752,64.815430 
M20.824785,239.267227 
	C22.348562,239.551941 23.981691,240.343719 25.379074,240.042358 
	C38.318073,237.251999 51.127991,236.511536 63.943996,240.897614 
	C65.517349,241.436081 68.533279,240.622543 69.463760,239.377029 
	C70.408569,238.112289 70.338478,234.951050 69.348503,233.699890 
	C68.361435,232.452362 65.348747,231.628998 63.796589,232.193527 
	C51.332649,236.726807 38.780094,235.553436 26.238062,233.139587 
	C21.302637,232.189713 19.642729,233.394760 20.824785,239.267227 
M57.752293,257.976685 
	C56.429314,254.645859 53.953331,252.397797 50.539104,253.957886 
	C48.594547,254.846420 46.141815,258.012238 46.470692,259.635345 
	C46.888973,261.699707 49.699291,264.397125 51.823803,264.751740 
	C55.570881,265.377136 57.795803,262.701538 57.752293,257.976685 
M113.283310,39.595661 
	C112.251297,39.066833 111.178238,38.013088 110.193588,38.090076 
	C99.932472,38.892311 89.686249,40.170906 79.559319,36.932381 
	C78.710899,36.661064 76.851532,37.214420 76.626198,37.818775 
	C76.159981,39.069126 76.146439,40.737122 76.615257,41.981495 
	C76.847122,42.596901 78.718491,43.154945 79.583054,42.886253 
	C89.884964,39.684505 100.280190,40.814251 110.705368,41.855312 
	C111.509216,41.935589 112.425079,40.894241 113.283310,39.595661 
M90.230026,27.236792 
	C92.229469,26.688541 94.599327,26.598923 96.077415,25.405146 
	C96.856262,24.776115 96.682243,21.746710 95.835289,20.664444 
	C94.967659,19.555756 92.659073,18.881824 91.146812,19.110914 
	C87.717285,19.630440 87.158531,22.910576 90.230026,27.236792 
M37.875969,273.039154 
	C37.036983,274.913910 35.780178,276.750732 35.604469,278.685699 
	C35.549164,279.294739 38.535439,280.937988 39.870739,280.693604 
	C41.108265,280.467072 43.130375,277.807983 42.825096,277.173187 
	C42.016579,275.491913 40.135506,274.326416 37.875969,273.039154 
M104.866028,6.448815 
	C102.994446,6.359805 101.020859,5.909466 99.310677,6.392231 
	C98.766319,6.545895 98.303375,9.567795 98.931374,10.570984 
	C99.562668,11.579438 102.473824,12.498712 102.856216,12.075358 
	C104.026909,10.779280 104.462799,8.819481 104.866028,6.448815 
z"/>
<path fill="#DBB125" opacity="1.000000" stroke="none" 
	d="
M1.000000,200.428467 
	C20.585251,200.464386 40.169968,201.186890 59.756096,201.227341 
	C65.245262,201.238678 70.742935,199.263596 76.225883,198.146530 
	C77.192200,197.949661 78.235565,197.018173 79.018936,197.235367 
	C81.880051,198.028610 85.067734,198.638550 87.264786,200.399811 
	C88.314651,201.241409 88.278130,205.649826 87.223396,206.448669 
	C84.967979,208.156891 81.212120,210.054749 78.973839,209.276840 
	C58.123547,202.030350 36.784767,205.963135 15.636438,205.897934 
	C14.022896,205.892960 12.329365,206.391617 10.808270,206.996368 
	C7.361936,208.366547 4.323884,208.022842 1.308796,205.707275 
	C1.000000,204.285645 1.000000,202.571289 1.000000,200.428467 
z"/>
<path fill="#EFF0F5" opacity="1.000000" stroke="none" 
	d="
M187.940979,176.137253 
	C188.370789,184.728989 188.786819,192.856598 189.237991,201.670258 
	C174.008667,201.670258 159.132187,201.670258 143.977158,201.670258 
	C143.733353,198.893616 143.460419,195.784973 143.092499,191.594666 
	C154.141464,191.594666 164.855484,191.594666 175.726288,191.594666 
	C175.726288,188.593719 175.726288,186.645050 175.726288,184.512146 
	C164.920685,184.512146 154.057861,184.512146 142.782974,184.512146 
	C142.258484,174.552109 141.719315,164.313126 141.154633,153.589722 
	C156.182159,152.635040 170.910812,151.699341 186.299484,150.721725 
	C186.711929,155.167191 187.098999,159.339294 187.533066,164.018005 
	C176.654526,164.679062 166.100113,165.320419 155.088943,165.989548 
	C155.389496,168.365097 155.645645,170.389694 155.931351,172.647903 
	C166.587875,172.153473 176.835770,171.678009 187.481308,171.184097 
	C187.642105,172.802841 187.784668,174.237976 187.940979,176.137253 
z"/>
<path fill="#F2F3F8" opacity="1.000000" stroke="none" 
	d="
M192.292694,187.002960 
	C192.298965,179.732193 192.298965,172.960968 192.298965,166.028687 
	C206.921417,166.028687 220.682617,166.028687 234.293610,166.028687 
	C234.293610,177.860748 234.293610,189.696335 234.293610,201.971771 
	C224.141800,201.971771 214.759323,201.971771 205.162903,201.971771 
	C205.162903,207.830704 205.162903,213.249878 205.162903,218.964386 
	C200.872360,218.964386 196.786514,218.964386 192.286407,218.964386 
	C192.286407,208.613113 192.286407,198.057800 192.292694,187.002960 
M209.714554,176.903717 
	C208.336731,177.015121 206.958908,177.126526 205.410019,177.251755 
	C205.199066,182.020599 205.011627,186.257736 204.812927,190.749405 
	C210.422867,190.749405 215.595673,190.749405 220.739075,190.749405 
	C220.739075,186.055893 220.739075,181.666901 220.739075,176.914276 
	C217.217300,176.914276 213.940231,176.914276 209.714554,176.903717 
z"/>
<path fill="#F2F3F8" opacity="1.000000" stroke="none" 
	d="
M248.478622,130.564819 
	C256.440460,131.320999 264.223206,131.663254 272.007599,131.961746 
	C273.976715,132.037231 275.951202,131.973038 278.085571,131.973038 
	C278.309753,136.371140 278.511536,140.330063 278.731812,144.651413 
	C264.149628,144.651413 249.781006,144.651413 235.263474,144.651413 
	C235.263474,130.040833 235.263474,115.466187 235.263474,100.888290 
	C249.783981,100.888290 264.030243,100.888290 279.098114,100.888290 
	C278.770538,105.645988 278.483826,109.809875 278.186218,114.131912 
	C268.096252,114.131912 258.487579,114.131912 248.300140,114.131912 
	C248.300140,119.572212 248.300140,124.853439 248.478622,130.564819 
z"/>
<path fill="#EEEFF3" opacity="1.000000" stroke="none" 
	d="
M227.540695,105.181213 
	C228.735229,105.810425 230.049805,106.386208 230.121506,107.088821 
	C230.842926,114.158730 231.360504,121.249443 232.005493,129.197937 
	C224.112305,129.197937 216.708206,129.197937 208.935196,129.197937 
	C209.051147,131.621048 209.126190,133.189362 209.220032,135.150543 
	C216.258240,135.150543 223.016663,135.150543 230.212860,135.150543 
	C230.645966,138.400482 231.034088,141.312790 231.477127,144.637192 
	C219.438873,144.637192 207.720703,144.637192 195.579376,144.637192 
	C194.881958,131.925064 194.183502,119.193771 193.415039,105.186646 
	C204.882416,105.186646 215.983154,105.186646 227.540695,105.181213 
M216.344315,113.667572 
	C213.263596,113.667572 210.182861,113.667572 206.757889,113.667572 
	C207.010330,116.569458 207.199539,118.744324 207.412323,121.190315 
	C211.957504,120.930313 215.857986,120.707191 221.689835,120.373596 
	C219.769135,117.431328 218.530762,115.534302 216.344315,113.667572 
z"/>
<path fill="#EEEEF3" opacity="1.000000" stroke="none" 
	d="
M349.095612,167.079529 
	C349.077911,165.483475 349.077911,164.364594 349.077911,162.714172 
	C361.360626,162.714172 373.276367,162.714172 385.670288,162.714172 
	C386.224762,170.102280 386.792480,177.666550 387.392548,185.662109 
	C379.513916,186.013153 371.965332,186.349503 364.182953,186.696259 
	C364.458954,188.767624 364.651489,190.212570 364.902008,192.092712 
	C371.768097,192.092712 378.510681,192.092712 385.628082,192.092712 
	C386.137268,195.360413 386.586578,198.244064 387.107941,201.590042 
	C375.067810,201.590042 363.350891,201.590042 351.172913,201.590042 
	C350.493378,190.360794 349.803345,178.958740 349.095612,167.079529 
M362.299255,171.454651 
	C362.546875,173.563324 362.794495,175.671997 363.088409,178.174911 
	C367.373138,177.939880 371.426025,177.717560 375.897339,177.472290 
	C375.529175,174.783020 375.251068,172.751434 375.007782,170.974289 
	C370.645752,170.974289 366.840759,170.974289 362.299255,171.454651 
z"/>
<path fill="#EEEFF3" opacity="1.000000" stroke="none" 
	d="
M276.496460,195.642517 
	C275.882080,184.582291 275.314850,173.987656 274.714600,162.776550 
	C287.064575,162.776550 298.976349,162.776550 311.411407,162.776550 
	C311.975647,170.035858 312.564850,177.616974 313.219482,186.039612 
	C305.464478,186.039612 298.045349,186.039612 290.374695,186.039612 
	C290.374695,188.410233 290.374695,189.964478 290.374695,192.152039 
	C297.535522,192.152039 304.411896,192.152039 311.445953,192.152039 
	C311.927094,195.503922 312.322815,198.260727 312.791443,201.525253 
	C300.894501,201.525253 289.198425,201.525253 277.034821,201.525253 
	C276.890533,199.934311 276.717041,198.021210 276.496460,195.642517 
M300.354553,170.729736 
	C296.286407,170.729736 292.218231,170.729736 287.764801,170.729736 
	C288.234283,173.616364 288.588135,175.792023 288.980255,178.202957 
	C293.327606,177.929520 297.189117,177.686630 301.301147,177.427994 
	C301.162750,175.048126 301.059052,173.265198 300.354553,170.729736 
z"/>
<path fill="#EFF0F5" opacity="1.000000" stroke="none" 
	d="
M159.006287,122.020752 
	C158.999664,117.548935 158.999664,113.572845 158.999664,109.086502 
	C152.951508,108.695435 147.377213,108.335007 141.461304,107.952492 
	C141.461304,103.882164 141.461304,99.839302 141.461304,95.686081 
	C157.742203,95.686081 173.991302,95.686081 190.866837,95.686081 
	C190.561432,100.738937 190.287109,105.277748 189.987061,110.242310 
	C184.263123,109.980232 178.840668,109.731956 173.532440,109.488907 
	C173.532440,121.204918 173.532440,132.809738 173.532440,144.814178 
	C169.184021,144.814178 164.603073,144.814178 159.012909,144.814178 
	C159.012909,137.438797 159.012909,129.977631 159.006287,122.020752 
z"/>
<path fill="#EEEFF4" opacity="1.000000" stroke="none" 
	d="
M289.549072,144.695923 
	C286.950043,144.727005 284.796173,144.727005 282.315155,144.727005 
	C282.315155,128.703873 282.315155,112.633301 282.315155,96.233780 
	C285.412903,96.233780 288.449097,96.233780 291.917847,96.233780 
	C291.917847,102.845451 291.917847,109.264450 291.917847,116.464516 
	C300.069824,116.464516 307.818817,116.464516 315.589417,116.464516 
	C315.589417,126.381729 315.589417,135.500900 315.589417,144.912415 
	C310.979523,144.912415 306.563080,144.912415 301.756683,144.912415 
	C301.756683,139.420166 301.756683,133.974121 301.756683,128.311829 
	C298.430450,128.311829 295.488342,128.311829 291.794342,128.311829 
	C291.794342,132.442810 291.941467,136.556107 291.711639,140.648254 
	C291.634888,142.014954 290.594269,143.327515 289.549072,144.695923 
z"/>
<path fill="#EEEFF4" opacity="1.000000" stroke="none" 
	d="
M271.299408,173.964844 
	C271.710266,183.274643 271.710266,192.391113 271.710266,201.856964 
	C267.360901,201.856964 262.968842,201.856964 258.172546,201.856964 
	C258.172546,196.650208 258.172546,191.233643 258.172546,185.455505 
	C254.748657,185.455505 251.711868,185.455505 248.102753,185.455505 
	C248.102753,190.629196 248.102753,195.869675 248.102753,201.514511 
	C244.644760,201.678787 241.717621,201.817841 238.447357,201.973206 
	C238.447357,185.654984 238.447357,169.616364 238.447357,153.241669 
	C241.561050,153.241669 244.464325,153.241669 247.816345,153.241669 
	C247.816345,159.518494 247.816345,165.915024 247.816345,173.771530 
	C255.776474,173.771530 263.332520,173.771530 271.299408,173.964844 
z"/>
<path fill="#E3B826" opacity="1.000000" stroke="none" 
	d="
M48.131859,112.829361 
	C41.105667,102.407883 38.698029,91.813919 44.623039,80.182304 
	C43.011139,101.024315 56.895977,112.686317 70.437569,124.595818 
	C76.550552,129.972046 82.845848,135.205215 88.447571,141.085236 
	C100.273140,153.498276 104.746811,168.498856 102.572914,186.704773 
	C101.845245,184.653229 101.328758,183.683090 101.162781,182.656296 
	C98.620445,166.927750 91.026611,154.136810 79.356079,143.365982 
	C68.747208,133.574951 58.645126,123.234795 48.131859,112.829361 
z"/>
<path fill="#EFF0F5" opacity="1.000000" stroke="none" 
	d="
M316.125214,168.134003 
	C316.123688,166.006607 316.123688,164.361832 316.123688,162.300201 
	C326.087372,162.300201 335.809357,162.300201 345.763916,162.300201 
	C345.763916,167.400803 345.763916,172.651810 345.763916,178.320892 
	C342.274780,178.320892 339.057037,178.320892 335.398132,178.320892 
	C335.238617,176.446609 335.062805,174.381104 334.869049,172.104309 
	C333.355560,172.104309 331.964569,172.104309 330.243011,172.104309 
	C330.243011,182.106293 330.243011,191.880585 330.243011,201.723053 
	C325.492554,201.723053 321.074860,201.723053 316.126740,201.723053 
	C316.126740,190.522919 316.126740,179.569778 316.125214,168.134003 
z"/>
<path fill="#E1B626" opacity="1.000000" stroke="none" 
	d="
M32.307404,172.400223 
	C28.191654,171.088974 26.839930,168.317001 28.350294,164.921906 
	C29.925735,161.380554 32.937065,161.632812 36.420700,162.686478 
	C48.940670,166.473282 61.438805,167.339783 73.545479,160.968353 
	C77.210197,159.039703 81.156509,158.947220 83.232964,162.621246 
	C84.515648,164.890778 84.662598,168.828934 83.551376,171.183594 
	C81.892647,174.698364 77.972656,175.408737 74.462257,173.482315 
	C61.547859,166.395279 48.426270,167.334259 35.114452,172.011414 
	C34.340996,172.283203 33.488312,172.329483 32.307404,172.400223 
z"/>
<path fill="#E1B626" opacity="1.000000" stroke="none" 
	d="
M72.952255,95.673355 
	C69.660362,96.573494 66.825378,97.769005 63.908978,98.020493 
	C61.919334,98.192062 58.716766,97.639374 58.018917,96.349113 
	C56.949791,94.372398 56.718235,91.011879 57.753315,89.131721 
	C58.536667,87.708801 62.255123,86.577866 63.976456,87.207100 
	C76.444801,91.764862 88.946663,91.838715 101.716827,88.911484 
	C103.245903,88.560982 105.578506,89.307808 106.697403,90.404381 
	C107.470985,91.162529 107.421951,94.050354 106.620689,94.818726 
	C105.456703,95.934914 103.275688,96.461609 101.541443,96.433533 
	C92.150223,96.281517 82.763039,95.881210 72.952255,95.673355 
z"/>
<path fill="#DDB325" opacity="1.000000" stroke="none" 
	d="
M61.495602,64.711136 
	C60.147030,62.764709 59.184608,60.922573 58.222187,59.080437 
	C60.332344,58.222042 62.634769,56.318428 64.523125,56.665791 
	C84.997124,60.432026 105.435677,60.305817 125.952873,57.164082 
	C127.603172,56.911377 129.649918,57.847424 131.157593,58.795399 
	C131.712631,59.144379 131.734146,61.773861 131.135483,62.230148 
	C129.854340,63.206577 127.929672,64.081337 126.408905,63.888889 
	C104.845573,61.160156 83.343025,61.141991 61.495602,64.711136 
z"/>
<path fill="#E5B927" opacity="1.000000" stroke="none" 
	d="
M20.560940,238.974792 
	C19.642729,233.394760 21.302637,232.189713 26.238062,233.139587 
	C38.780094,235.553436 51.332649,236.726807 63.796589,232.193527 
	C65.348747,231.628998 68.361435,232.452362 69.348503,233.699890 
	C70.338478,234.951050 70.408569,238.112289 69.463760,239.377029 
	C68.533279,240.622543 65.517349,241.436081 63.943996,240.897614 
	C51.127991,236.511536 38.318073,237.251999 25.379074,240.042358 
	C23.981691,240.343719 22.348562,239.551941 20.560940,238.974792 
z"/>
<path fill="#E2B726" opacity="1.000000" stroke="none" 
	d="
M57.822937,258.348389 
	C57.795803,262.701538 55.570881,265.377136 51.823803,264.751740 
	C49.699291,264.397125 46.888973,261.699707 46.470692,259.635345 
	C46.141815,258.012238 48.594547,254.846420 50.539104,253.957886 
	C53.953331,252.397797 56.429314,254.645859 57.822937,258.348389 
z"/>
<path fill="#E4B827" opacity="1.000000" stroke="none" 
	d="
M113.286095,39.984940 
	C112.425079,40.894241 111.509216,41.935589 110.705368,41.855312 
	C100.280190,40.814251 89.884964,39.684505 79.583054,42.886253 
	C78.718491,43.154945 76.847122,42.596901 76.615257,41.981495 
	C76.146439,40.737122 76.159981,39.069126 76.626198,37.818775 
	C76.851532,37.214420 78.710899,36.661064 79.559319,36.932381 
	C89.686249,40.170906 99.932472,38.892311 110.193588,38.090076 
	C111.178238,38.013088 112.251297,39.066833 113.286095,39.984940 
z"/>
<path fill="#DFB526" opacity="1.000000" stroke="none" 
	d="
M89.894302,27.042408 
	C87.158531,22.910576 87.717285,19.630440 91.146812,19.110914 
	C92.659073,18.881824 94.967659,19.555756 95.835289,20.664444 
	C96.682243,21.746710 96.856262,24.776115 96.077415,25.405146 
	C94.599327,26.598923 92.229469,26.688541 89.894302,27.042408 
z"/>
<path fill="#E6BA27" opacity="1.000000" stroke="none" 
	d="
M38.278599,272.997437 
	C40.135506,274.326416 42.016579,275.491913 42.825096,277.173187 
	C43.130375,277.807983 41.108265,280.467072 39.870739,280.693604 
	C38.535439,280.937988 35.549164,279.294739 35.604469,278.685699 
	C35.780178,276.750732 37.036983,274.913910 38.278599,272.997437 
z"/>
<path fill="#DBB125" opacity="1.000000" stroke="none" 
	d="
M105.025253,6.783319 
	C104.462799,8.819481 104.026909,10.779280 102.856216,12.075358 
	C102.473824,12.498712 99.562668,11.579438 98.931374,10.570984 
	C98.303375,9.567795 98.766319,6.545895 99.310677,6.392231 
	C101.020859,5.909466 102.994446,6.359805 105.025253,6.783319 
z"/>
<path fill="#030303" opacity="1.000000" stroke="none" 
	d="
M210.188873,176.908997 
	C213.940231,176.914276 217.217300,176.914276 220.739075,176.914276 
	C220.739075,181.666901 220.739075,186.055893 220.739075,190.749405 
	C215.595673,190.749405 210.422867,190.749405 204.812927,190.749405 
	C205.011627,186.257736 205.199066,182.020599 205.410019,177.251755 
	C206.958908,177.126526 208.336731,177.015121 210.188873,176.908997 
z"/>
<path fill="#090A0A" opacity="1.000000" stroke="none" 
	d="
M216.818359,113.652420 
	C218.530762,115.534302 219.769135,117.431328 221.689835,120.373596 
	C215.857986,120.707191 211.957504,120.930313 207.412323,121.190315 
	C207.199539,118.744324 207.010330,116.569458 206.757889,113.667572 
	C210.182861,113.667572 213.263596,113.667572 216.818359,113.652420 
z"/>
<path fill="#0D0D0D" opacity="1.000000" stroke="none" 
	d="
M362.667511,171.214478 
	C366.840759,170.974289 370.645752,170.974289 375.007782,170.974289 
	C375.251068,172.751434 375.529175,174.783020 375.897339,177.472290 
	C371.426025,177.717560 367.373138,177.939880 363.088409,178.174911 
	C362.794495,175.671997 362.546875,173.563324 362.667511,171.214478 
z"/>
<path fill="#080809" opacity="1.000000" stroke="none" 
	d="
M300.654968,171.106003 
	C301.059052,173.265198 301.162750,175.048126 301.301147,177.427994 
	C297.189117,177.686630 293.327606,177.929520 288.980255,178.202957 
	C288.588135,175.792023 288.234283,173.616364 287.764801,170.729736 
	C292.218231,170.729736 296.286407,170.729736 300.654968,171.106003 
z"/>
</svg>