<svg version="1.1" id="Layer_1" xmlns="http://www.w3.org/2000/svg" xmlns:xlink="http://www.w3.org/1999/xlink" x="0px" y="0px"
	 width="100%" viewBox="0 0 390 283" enable-background="new 0 0 390 283" xml:space="preserve">
<path fill="#F5F5FA" opacity="1.000000" stroke="none" 
	d="
M1.000000,202.000000 
	C1.000000,135.021851 1.000000,68.043686 1.000000,1.032767 
	C130.935760,1.032767 260.871552,1.032767 390.903656,1.032767 
	C390.903656,95.238266 390.903656,189.476654 390.903656,283.857544 
	C261.000122,283.857544 131.000076,283.857544 1.000000,283.857544 
	C1.000000,257.920624 1.000000,231.928970 1.352416,205.539963 
	C4.016536,207.969849 6.784097,208.277451 10.201823,207.236694 
	C13.183111,206.328827 16.362661,205.737656 19.472727,205.650085 
	C28.607718,205.392929 37.751667,205.418869 46.892220,205.403549 
	C57.668369,205.385483 68.434135,204.815231 78.810860,209.235916 
	C80.914902,210.132278 84.803474,208.294510 87.101898,206.646729 
	C88.198677,205.860428 88.421127,201.491577 87.418770,200.629044 
	C85.290230,198.797440 82.168182,197.916855 79.313065,197.229538 
	C78.107841,196.939392 76.582764,198.270218 75.142899,198.606659 
	C71.132004,199.543869 67.101913,201.008118 63.057446,201.083298 
	C48.270496,201.358231 33.474110,201.207733 18.682590,201.073242 
	C16.234129,201.050980 13.656389,200.670441 11.377103,199.817535 
	C7.312948,198.296753 3.966867,198.926147 1.000000,202.000000 
M144.234161,201.884277 
	C159.106339,201.884277 173.978531,201.884277 189.246414,201.884277 
	C188.663773,191.076340 188.138641,181.334808 187.594696,171.244583 
	C176.897125,171.731720 166.656357,172.198044 155.939316,172.686066 
	C155.636978,170.485123 155.357208,168.448303 155.015152,165.958206 
	C165.970490,165.284683 176.527481,164.635666 187.419449,163.966034 
	C187.058090,159.442856 186.731873,155.359482 186.364258,150.757843 
	C171.095215,151.735138 156.254288,152.685043 141.201752,153.648483 
	C141.768829,164.428406 142.300735,174.539917 142.824341,184.493347 
	C153.993378,184.493347 164.860397,184.493347 175.762329,184.493347 
	C175.762329,186.581879 175.762329,188.530518 175.762329,191.586685 
	C164.909256,191.586685 154.194824,191.586685 143.241013,191.586685 
	C143.532013,195.512741 143.739853,198.316833 144.234161,201.884277 
M234.903244,174.504303 
	C234.903244,171.733521 234.903244,168.962723 234.903244,166.270508 
	C220.636337,166.270508 206.775085,166.270508 192.462463,166.270508 
	C192.462463,184.069550 192.462463,201.488785 192.462463,218.921082 
	C196.642807,218.921082 200.717773,218.921082 205.119507,218.921082 
	C205.119507,213.232178 205.119507,207.814301 205.119507,201.883240 
	C214.828918,201.883240 224.214584,201.883240 233.707138,201.883240 
	C234.111588,192.736771 234.493011,184.111084 234.903244,174.504303 
M235.049973,126.499504 
	C235.049973,132.591599 235.049973,138.683685 235.049973,144.701874 
	C249.849289,144.701874 264.083038,144.701874 278.637024,144.701874 
	C278.423889,140.335205 278.226440,136.290466 278.000946,131.670517 
	C267.870361,131.670517 258.272278,131.670517 248.508087,131.670517 
	C248.508087,125.492691 248.508087,119.932350 248.508087,113.974731 
	C258.525055,113.974731 268.246979,113.974731 278.133667,113.974731 
	C278.462494,109.656990 278.761841,105.726044 279.114868,101.090225 
	C264.215881,101.090225 249.849609,101.090225 235.054001,101.090225 
	C235.054001,109.223137 235.054001,117.361389 235.049973,126.499504 
M230.784103,138.626587 
	C230.728485,135.762650 229.100052,135.180725 226.514664,135.254837 
	C220.777481,135.419266 215.032333,135.306061 209.207947,135.306061 
	C209.207947,132.945404 209.207947,131.371964 209.207947,128.941284 
	C216.892731,128.941284 224.294205,128.941284 231.971817,128.941284 
	C231.272629,120.517609 230.646759,112.977203 230.060028,105.908371 
	C217.550812,105.908371 205.667007,105.908371 193.490005,105.908371 
	C194.236694,119.330757 194.944199,132.048828 195.646515,144.673737 
	C207.773895,144.673737 219.352203,144.673737 231.208908,144.673737 
	C231.085846,142.698410 230.984436,141.070663 230.784103,138.626587 
M386.102783,195.305801 
	C386.323761,192.369370 384.456848,192.249634 382.245972,192.279846 
	C376.613739,192.356781 370.979797,192.305420 365.020264,192.305420 
	C364.702332,190.468719 364.432190,188.908340 363.958282,186.170654 
	C371.965698,186.170654 379.490601,186.170654 387.409393,186.170654 
	C386.738983,177.480637 386.157410,169.941956 385.613770,162.894897 
	C373.025940,162.894897 361.128998,162.894897 348.920074,162.894897 
	C349.705505,176.287933 350.450562,188.992584 351.186432,201.540924 
	C363.339600,201.540924 375.032867,201.540924 387.044525,201.540924 
	C386.711731,199.408173 386.457794,197.780930 386.102783,195.305801 
M301.464874,201.893097 
	C305.080658,201.893097 308.696442,201.893097 312.731476,201.893097 
	C312.260864,198.372360 311.877747,195.506195 311.449860,192.304993 
	C305.712433,192.304993 300.408234,192.089554 295.130890,192.373367 
	C290.930389,192.599258 289.220764,191.261154 290.579102,186.176956 
	C297.835236,186.176956 305.228577,186.176956 313.202240,186.176956 
	C312.514648,177.635529 311.899628,169.995453 311.321075,162.808426 
	C298.770752,162.808426 287.022430,162.808426 274.704102,162.808426 
	C275.474915,176.224991 276.210266,189.024307 276.949951,201.899414 
	C285.208221,201.899414 292.842621,201.899414 301.464874,201.893097 
M173.884171,144.198410 
	C173.884171,132.626083 173.884171,121.053757 173.884171,109.740555 
	C179.051041,109.740555 184.475693,109.740555 189.995621,109.740555 
	C190.251694,105.131912 190.496857,100.719215 190.771896,95.769119 
	C173.996338,95.769119 157.771667,95.769119 141.372452,95.769119 
	C141.372452,99.797447 141.372452,103.721909 141.372452,107.908386 
	C147.164307,108.247330 152.752609,108.574356 159.284119,108.956581 
	C159.284119,121.151894 159.284119,133.028824 159.284119,144.851730 
	C164.569916,144.851730 168.880066,144.851730 173.884171,144.198410 
M302.969727,145.107986 
	C307.075378,145.107986 311.181030,145.107986 315.510864,145.107986 
	C315.510864,135.514297 315.510864,126.422012 315.510864,116.468948 
	C307.757294,116.468948 300.032043,116.468948 291.867218,116.468948 
	C291.867218,109.222900 291.867218,102.822533 291.867218,96.187088 
	C288.485931,96.187088 285.572083,96.187088 282.393585,96.187088 
	C282.393585,112.500084 282.393585,128.647202 282.393585,145.049911 
	C285.720703,144.774475 288.618500,144.534576 291.971436,144.257004 
	C291.971436,138.596527 291.971436,133.504150 291.971436,128.281128 
	C295.415131,128.281128 298.343597,128.281128 302.124817,128.281128 
	C302.124817,133.916382 302.124817,139.345032 302.969727,145.107986 
M271.953796,190.485260 
	C271.953796,185.032959 271.953796,179.580658 271.953796,173.290741 
	C263.806366,173.290741 256.078949,173.290741 247.897415,173.290741 
	C247.897415,166.056778 247.897415,159.656311 247.897415,153.287506 
	C244.521301,153.287506 241.636353,153.287506 238.554169,153.287506 
	C238.554169,169.661819 238.554169,185.685211 238.554169,201.996902 
	C241.895401,201.773300 244.811310,201.578156 248.115082,201.357071 
	C248.115082,195.729782 248.115082,190.621445 248.115082,185.384735 
	C251.590302,185.384735 254.629486,185.384735 258.119446,185.384735 
	C258.119446,191.105972 258.119446,196.512787 258.119446,201.782196 
	C262.969604,201.782196 267.351013,201.782196 271.953796,201.782196 
	C271.953796,198.100998 271.953796,194.789551 271.953796,190.485260 
M61.739143,127.759163 
	C65.477859,131.074020 69.137154,134.483917 72.969681,137.686508 
	C86.297554,148.823746 97.129509,161.580551 100.514305,179.290268 
	C100.858467,181.090988 101.289352,182.875153 101.886246,185.613052 
	C102.552330,184.187393 102.866028,183.802628 102.904602,183.392014 
	C104.350082,168.007523 100.303909,154.182465 89.918564,142.769043 
	C83.782532,136.025589 76.654999,130.166962 69.827850,124.073433 
	C56.570690,112.240852 42.980591,100.656197 44.622887,80.129234 
	C41.602623,85.818893 40.373188,91.632774 41.611008,97.888390 
	C44.087833,110.405617 52.478527,118.954895 61.739143,127.759163 
M322.618713,162.021286 
	C320.540283,162.021286 318.461853,162.021286 316.480255,162.021286 
	C316.480255,175.723267 316.480255,188.631256 316.480255,201.686584 
	C321.196228,201.686584 325.572052,201.686584 330.305206,201.686584 
	C330.305206,191.652176 330.305206,181.895630 330.305206,171.806076 
	C332.093781,171.936539 333.496887,172.038895 334.895752,172.140930 
	C335.076477,174.425354 335.228729,176.349716 335.382263,178.290192 
	C338.931702,178.290192 342.137756,178.290192 345.680359,178.290192 
	C345.680359,172.663513 345.680359,167.433426 345.680359,162.016434 
	C338.178558,162.016434 330.886353,162.016434 322.618713,162.021286 
M32.680149,172.518692 
	C33.652542,172.313065 34.658974,172.206741 35.592201,171.886871 
	C48.577579,167.435822 61.418617,166.422119 73.994728,173.294281 
	C77.514633,175.217712 80.852020,174.778519 83.419693,171.691437 
	C85.832428,168.790634 85.853302,165.473038 83.449219,162.540512 
	C80.723701,159.215912 77.198143,159.029922 73.562233,160.944794 
	C61.450710,167.323380 48.965221,166.424057 36.439259,162.694565 
	C32.989468,161.667419 29.938629,161.336807 28.359764,164.916168 
	C26.857840,168.321106 28.248371,171.076645 32.680149,172.518692 
M104.091431,88.265305 
	C90.597168,91.743210 77.248810,92.172218 63.911972,87.174606 
	C62.227329,86.543335 58.500038,87.762505 57.722809,89.204399 
	C56.707958,91.087128 56.888172,94.579063 58.075401,96.370529 
	C58.983101,97.740204 62.576332,98.509064 64.418182,97.889603 
	C76.461235,93.839111 88.547806,93.933052 100.859795,96.175346 
	C102.732849,96.516464 104.897522,95.256393 106.927315,94.736923 
	C106.221863,92.656746 105.516403,90.576576 104.091431,88.265305 
M83.918739,62.216244 
	C97.998024,62.796516 112.075241,63.446201 126.159286,63.867229 
	C127.876389,63.918556 129.812683,63.004162 131.269379,61.992821 
	C131.788483,61.632423 131.607254,58.893383 131.013657,58.565525 
	C129.439682,57.696186 127.430779,57.072414 125.658279,57.204071 
	C119.896927,57.631996 114.156296,59.055950 108.421501,58.984737 
	C93.538116,58.799931 78.511307,60.738178 63.815517,56.425804 
	C62.397377,56.009659 60.051968,57.352982 58.737431,58.542862 
	C58.021572,59.190830 57.982071,61.882870 58.673641,62.509502 
	C59.973907,63.687683 62.080463,64.738075 63.754673,64.606468 
	C70.187271,64.100815 76.581413,63.105881 83.918739,62.216244 
M70.670181,237.195206 
	C69.455956,232.235077 67.485802,230.783600 63.612728,232.170670 
	C51.145359,236.635635 38.567387,235.514999 25.899601,233.227493 
	C24.213890,232.923080 21.944132,233.480270 20.616959,234.507111 
	C19.891350,235.068512 19.980803,238.265350 20.755455,238.830353 
	C22.070965,239.789841 24.332058,240.160461 25.998549,239.818268 
	C38.341972,237.283478 50.616768,236.578979 62.757282,240.678482 
	C66.252235,241.858627 68.963379,241.826828 70.670181,237.195206 
M50.090813,264.718903 
	C55.956848,265.035767 59.643703,261.283569 57.236313,257.116089 
	C56.252789,255.413498 53.604176,253.484055 51.939850,253.671463 
	C49.964207,253.893936 47.050781,256.056213 46.711823,257.799438 
	C46.335964,259.732483 48.408321,262.141510 50.090813,264.718903 
M87.890060,41.020786 
	C94.998085,41.221226 102.105644,41.442886 109.214592,41.601822 
	C110.440826,41.629238 111.713768,41.524174 112.871269,41.171898 
	C113.131607,41.092663 113.203598,39.106300 113.013420,39.042801 
	C111.720634,38.611153 110.319038,38.185760 108.980812,38.260921 
	C99.262894,38.806721 89.539116,40.133514 79.941002,37.091393 
	C78.946289,36.776123 77.076515,37.228584 76.541260,37.983315 
	C75.931953,38.842468 75.852684,40.893368 76.477585,41.601044 
	C77.222710,42.444881 79.005676,42.815338 80.257034,42.672497 
	C82.529922,42.413059 84.742218,41.622669 87.890060,41.020786 
M96.404121,21.191191 
	C94.419273,20.539927 92.423302,19.409658 90.454651,19.455406 
	C89.574425,19.475861 88.120140,21.836138 88.075966,23.172546 
	C88.031937,24.504679 89.101364,26.353651 90.253578,27.153082 
	C93.403954,29.338896 96.551704,26.702366 96.404121,21.191191 
M42.969597,278.167786 
	C43.299873,275.063080 42.346825,272.513153 38.849163,273.165131 
	C37.373005,273.440277 35.932949,275.700378 35.219677,277.374817 
	C34.943348,278.023499 36.678448,280.437653 37.574070,280.481598 
	C39.267521,280.564667 41.016560,279.515045 42.969597,278.167786 
M100.256599,12.063097 
	C101.979034,11.325974 103.944389,10.864341 105.279083,9.687478 
	C105.691071,9.324212 104.767555,6.385503 103.757126,5.767053 
	C102.738441,5.143551 99.722160,5.607918 99.557442,6.172379 
	C99.060432,7.875541 99.523933,9.858996 100.256599,12.063097 
z"/>
<path fill="#EDC337" opacity="1.000000" stroke="none" 
	d="
M1.000000,202.375000 
	C3.966867,198.926147 7.312948,198.296753 11.377103,199.817535 
	C13.656389,200.670441 16.234129,201.050980 18.682590,201.073242 
	C33.474110,201.207733 48.270496,201.358231 63.057446,201.083298 
	C67.101913,201.008118 71.132004,199.543869 75.142899,198.606659 
	C76.582764,198.270218 78.107841,196.939392 79.313065,197.229538 
	C82.168182,197.916855 85.290230,198.797440 87.418770,200.629044 
	C88.421127,201.491577 88.198677,205.860428 87.101898,206.646729 
	C84.803474,208.294510 80.914902,210.132278 78.810860,209.235916 
	C68.434135,204.815231 57.668369,205.385483 46.892220,205.403549 
	C37.751667,205.418869 28.607718,205.392929 19.472727,205.650085 
	C16.362661,205.737656 13.183111,206.328827 10.201823,207.236694 
	C6.784097,208.277451 4.016536,207.969849 1.352416,205.071304 
	C1.000000,204.250000 1.000000,203.500000 1.000000,202.375000 
z"/>
<path fill="#2B3747" opacity="1.000000" stroke="none" 
	d="
M144.090927,201.502609 
	C143.739853,198.316833 143.532013,195.512741 143.241013,191.586685 
	C154.194824,191.586685 164.909256,191.586685 175.762329,191.586685 
	C175.762329,188.530518 175.762329,186.581879 175.762329,184.493347 
	C164.860397,184.493347 153.993378,184.493347 142.824341,184.493347 
	C142.300735,174.539917 141.768829,164.428406 141.201752,153.648483 
	C156.254288,152.685043 171.095215,151.735138 186.364258,150.757843 
	C186.731873,155.359482 187.058090,159.442856 187.419449,163.966034 
	C176.527481,164.635666 165.970490,165.284683 155.015152,165.958206 
	C155.357208,168.448303 155.636978,170.485123 155.939316,172.686066 
	C166.656357,172.198044 176.897125,171.731720 187.594696,171.244583 
	C188.138641,181.334808 188.663773,191.076340 189.246414,201.884277 
	C173.978531,201.884277 159.106339,201.884277 144.090927,201.502609 
z"/>
<path fill="#283545" opacity="1.000000" stroke="none" 
	d="
M234.888840,174.994843 
	C234.493011,184.111084 234.111588,192.736771 233.707138,201.883240 
	C224.214584,201.883240 214.828918,201.883240 205.119507,201.883240 
	C205.119507,207.814301 205.119507,213.232178 205.119507,218.921082 
	C200.717773,218.921082 196.642807,218.921082 192.462463,218.921082 
	C192.462463,201.488785 192.462463,184.069550 192.462463,166.270508 
	C206.775085,166.270508 220.636337,166.270508 234.903244,166.270508 
	C234.903244,168.962723 234.903244,171.733521 234.888840,174.994843 
M216.392746,176.949158 
	C212.826904,176.949158 209.261063,176.949158 205.297668,176.949158 
	C205.297668,181.907028 205.297668,186.263382 205.297668,190.843552 
	C210.463455,190.843552 215.509735,190.843552 220.997253,190.843552 
	C220.997253,187.219894 220.793716,183.774185 221.058167,180.364792 
	C221.292511,177.343292 219.961014,176.598022 216.392746,176.949158 
z"/>
<path fill="#283545" opacity="1.000000" stroke="none" 
	d="
M235.051987,125.999573 
	C235.054001,117.361389 235.054001,109.223137 235.054001,101.090225 
	C249.849609,101.090225 264.215881,101.090225 279.114868,101.090225 
	C278.761841,105.726044 278.462494,109.656990 278.133667,113.974731 
	C268.246979,113.974731 258.525055,113.974731 248.508087,113.974731 
	C248.508087,119.932350 248.508087,125.492691 248.508087,131.670517 
	C258.272278,131.670517 267.870361,131.670517 278.000946,131.670517 
	C278.226440,136.290466 278.423889,140.335205 278.637024,144.701874 
	C264.083038,144.701874 249.849289,144.701874 235.049973,144.701874 
	C235.049973,138.683685 235.049973,132.591599 235.051987,125.999573 
z"/>
<path fill="#2C3948" opacity="1.000000" stroke="none" 
	d="
M230.833557,139.034760 
	C230.984436,141.070663 231.085846,142.698410 231.208908,144.673737 
	C219.352203,144.673737 207.773895,144.673737 195.646515,144.673737 
	C194.944199,132.048828 194.236694,119.330757 193.490005,105.908371 
	C205.667007,105.908371 217.550812,105.908371 230.060028,105.908371 
	C230.646759,112.977203 231.272629,120.517609 231.971817,128.941284 
	C224.294205,128.941284 216.892731,128.941284 209.207947,128.941284 
	C209.207947,131.371964 209.207947,132.945404 209.207947,135.306061 
	C215.032333,135.306061 220.777481,135.419266 226.514664,135.254837 
	C229.100052,135.180725 230.728485,135.762650 230.833557,139.034760 
M211.549133,113.734482 
	C210.003372,113.825539 208.457626,113.916588 206.737823,114.017891 
	C206.995148,116.757660 207.189163,118.823303 207.410202,121.176643 
	C211.950714,120.961044 215.945023,120.771378 220.197708,120.569443 
	C220.018280,117.834541 219.893082,115.926216 219.748398,113.720818 
	C217.046646,113.720818 214.781235,113.720818 211.549133,113.734482 
z"/>
<path fill="#2C3949" opacity="1.000000" stroke="none" 
	d="
M386.153320,195.729736 
	C386.457794,197.780930 386.711731,199.408173 387.044525,201.540924 
	C375.032867,201.540924 363.339600,201.540924 351.186432,201.540924 
	C350.450562,188.992584 349.705505,176.287933 348.920074,162.894897 
	C361.128998,162.894897 373.025940,162.894897 385.613770,162.894897 
	C386.157410,169.941956 386.738983,177.480637 387.409393,186.170654 
	C379.490601,186.170654 371.965698,186.170654 363.958282,186.170654 
	C364.432190,188.908340 364.702332,190.468719 365.020264,192.305420 
	C370.979797,192.305420 376.613739,192.356781 382.245972,192.279846 
	C384.456848,192.249634 386.323761,192.369370 386.153320,195.729736 
M372.438751,170.546051 
	C369.041077,170.707428 365.643372,170.868790 361.995880,171.042023 
	C362.427917,173.658264 362.770233,175.731400 363.170807,178.157196 
	C367.414185,177.949417 371.449402,177.751831 376.976013,177.481216 
	C375.408020,174.556580 374.324371,172.535309 372.438751,170.546051 
z"/>
<path fill="#2C3949" opacity="1.000000" stroke="none" 
	d="
M300.970947,201.896255 
	C292.842621,201.899414 285.208221,201.899414 276.949951,201.899414 
	C276.210266,189.024307 275.474915,176.224991 274.704102,162.808426 
	C287.022430,162.808426 298.770752,162.808426 311.321075,162.808426 
	C311.899628,169.995453 312.514648,177.635529 313.202240,186.176956 
	C305.228577,186.176956 297.835236,186.176956 290.579102,186.176956 
	C289.220764,191.261154 290.930389,192.599258 295.130890,192.373367 
	C300.408234,192.089554 305.712433,192.304993 311.449860,192.304993 
	C311.877747,195.506195 312.260864,198.372360 312.731476,201.893097 
	C308.696442,201.893097 305.080658,201.893097 300.970947,201.896255 
M290.585846,170.788773 
	C285.272980,172.321503 289.187744,175.405762 288.970184,178.182587 
	C293.297760,177.955750 297.178497,177.752319 301.463959,177.527695 
	C301.218750,174.820023 301.033234,172.771210 300.851410,170.763260 
	C297.420441,170.763260 294.462036,170.763260 290.585846,170.788773 
z"/>
<path fill="#2A3747" opacity="1.000000" stroke="none" 
	d="
M173.537201,144.525070 
	C168.880066,144.851730 164.569916,144.851730 159.284119,144.851730 
	C159.284119,133.028824 159.284119,121.151894 159.284119,108.956581 
	C152.752609,108.574356 147.164307,108.247330 141.372452,107.908386 
	C141.372452,103.721909 141.372452,99.797447 141.372452,95.769119 
	C157.771667,95.769119 173.996338,95.769119 190.771896,95.769119 
	C190.496857,100.719215 190.251694,105.131912 189.995621,109.740555 
	C184.475693,109.740555 179.051041,109.740555 173.884171,109.740555 
	C173.884171,121.053757 173.884171,132.626083 173.537201,144.525070 
z"/>
<path fill="#2C3949" opacity="1.000000" stroke="none" 
	d="
M302.547272,144.940826 
	C302.124817,139.345032 302.124817,133.916382 302.124817,128.281128 
	C298.343597,128.281128 295.415131,128.281128 291.971436,128.281128 
	C291.971436,133.504150 291.971436,138.596527 291.971436,144.257004 
	C288.618500,144.534576 285.720703,144.774475 282.393585,145.049911 
	C282.393585,128.647202 282.393585,112.500084 282.393585,96.187088 
	C285.572083,96.187088 288.485931,96.187088 291.867218,96.187088 
	C291.867218,102.822533 291.867218,109.222900 291.867218,116.468948 
	C300.032043,116.468948 307.757294,116.468948 315.510864,116.468948 
	C315.510864,126.422012 315.510864,135.514297 315.510864,145.107986 
	C311.181030,145.107986 307.075378,145.107986 302.547272,144.940826 
z"/>
<path fill="#2C3948" opacity="1.000000" stroke="none" 
	d="
M271.953796,190.981674 
	C271.953796,194.789551 271.953796,198.100998 271.953796,201.782196 
	C267.351013,201.782196 262.969604,201.782196 258.119446,201.782196 
	C258.119446,196.512787 258.119446,191.105972 258.119446,185.384735 
	C254.629486,185.384735 251.590302,185.384735 248.115082,185.384735 
	C248.115082,190.621445 248.115082,195.729782 248.115082,201.357071 
	C244.811310,201.578156 241.895401,201.773300 238.554169,201.996902 
	C238.554169,185.685211 238.554169,169.661819 238.554169,153.287506 
	C241.636353,153.287506 244.521301,153.287506 247.897415,153.287506 
	C247.897415,159.656311 247.897415,166.056778 247.897415,173.290741 
	C256.078949,173.290741 263.806366,173.290741 271.953796,173.290741 
	C271.953796,179.580658 271.953796,185.032959 271.953796,190.981674 
z"/>
<path fill="#ECC130" opacity="1.000000" stroke="none" 
	d="
M61.486439,127.514099 
	C52.478527,118.954895 44.087833,110.405617 41.611008,97.888390 
	C40.373188,91.632774 41.602623,85.818893 44.622887,80.129234 
	C42.980591,100.656197 56.570690,112.240852 69.827850,124.073433 
	C76.654999,130.166962 83.782532,136.025589 89.918564,142.769043 
	C100.303909,154.182465 104.350082,168.007523 102.904602,183.392014 
	C102.866028,183.802628 102.552330,184.187393 101.886246,185.613052 
	C101.289352,182.875153 100.858467,181.090988 100.514305,179.290268 
	C97.129509,161.580551 86.297554,148.823746 72.969681,137.686508 
	C69.137154,134.483917 65.477859,131.074020 61.486439,127.514099 
z"/>
<path fill="#2C3948" opacity="1.000000" stroke="none" 
	d="
M323.106415,162.018860 
	C330.886353,162.016434 338.178558,162.016434 345.680359,162.016434 
	C345.680359,167.433426 345.680359,172.663513 345.680359,178.290192 
	C342.137756,178.290192 338.931702,178.290192 335.382263,178.290192 
	C335.228729,176.349716 335.076477,174.425354 334.895752,172.140930 
	C333.496887,172.038895 332.093781,171.936539 330.305206,171.806076 
	C330.305206,181.895630 330.305206,191.652176 330.305206,201.686584 
	C325.572052,201.686584 321.196228,201.686584 316.480255,201.686584 
	C316.480255,188.631256 316.480255,175.723267 316.480255,162.021286 
	C318.461853,162.021286 320.540283,162.021286 323.106415,162.018860 
z"/>
<path fill="#ECC131" opacity="1.000000" stroke="none" 
	d="
M32.318027,172.430130 
	C28.248371,171.076645 26.857840,168.321106 28.359764,164.916168 
	C29.938629,161.336807 32.989468,161.667419 36.439259,162.694565 
	C48.965221,166.424057 61.450710,167.323380 73.562233,160.944794 
	C77.198143,159.029922 80.723701,159.215912 83.449219,162.540512 
	C85.853302,165.473038 85.832428,168.790634 83.419693,171.691437 
	C80.852020,174.778519 77.514633,175.217712 73.994728,173.294281 
	C61.418617,166.422119 48.577579,167.435822 35.592201,171.886871 
	C34.658974,172.206741 33.652542,172.313065 32.318027,172.430130 
z"/>
<path fill="#ECC132" opacity="1.000000" stroke="none" 
	d="
M104.451187,88.380852 
	C105.516403,90.576576 106.221863,92.656746 106.927315,94.736923 
	C104.897522,95.256393 102.732849,96.516464 100.859795,96.175346 
	C88.547806,93.933052 76.461235,93.839111 64.418182,97.889603 
	C62.576332,98.509064 58.983101,97.740204 58.075401,96.370529 
	C56.888172,94.579063 56.707958,91.087128 57.722809,89.204399 
	C58.500038,87.762505 62.227329,86.543335 63.911972,87.174606 
	C77.248810,92.172218 90.597168,91.743210 104.451187,88.380852 
z"/>
<path fill="#EDC336" opacity="1.000000" stroke="none" 
	d="
M83.454315,62.254845 
	C76.581413,63.105881 70.187271,64.100815 63.754673,64.606468 
	C62.080463,64.738075 59.973907,63.687683 58.673641,62.509502 
	C57.982071,61.882870 58.021572,59.190830 58.737431,58.542862 
	C60.051968,57.352982 62.397377,56.009659 63.815517,56.425804 
	C78.511307,60.738178 93.538116,58.799931 108.421501,58.984737 
	C114.156296,59.055950 119.896927,57.631996 125.658279,57.204071 
	C127.430779,57.072414 129.439682,57.696186 131.013657,58.565525 
	C131.607254,58.893383 131.788483,61.632423 131.269379,61.992821 
	C129.812683,63.004162 127.876389,63.918556 126.159286,63.867229 
	C112.075241,63.446201 97.998024,62.796516 83.454315,62.254845 
z"/>
<path fill="#ECC02D" opacity="1.000000" stroke="none" 
	d="
M70.555946,237.545319 
	C68.963379,241.826828 66.252235,241.858627 62.757282,240.678482 
	C50.616768,236.578979 38.341972,237.283478 25.998549,239.818268 
	C24.332058,240.160461 22.070965,239.789841 20.755455,238.830353 
	C19.980803,238.265350 19.891350,235.068512 20.616959,234.507111 
	C21.944132,233.480270 24.213890,232.923080 25.899601,233.227493 
	C38.567387,235.514999 51.145359,236.635635 63.612728,232.170670 
	C67.485802,230.783600 69.455956,232.235077 70.555946,237.545319 
z"/>
<path fill="#ECC131" opacity="1.000000" stroke="none" 
	d="
M49.752724,264.531097 
	C48.408321,262.141510 46.335964,259.732483 46.711823,257.799438 
	C47.050781,256.056213 49.964207,253.893936 51.939850,253.671463 
	C53.604176,253.484055 56.252789,255.413498 57.236313,257.116089 
	C59.643703,261.283569 55.956848,265.035767 49.752724,264.531097 
z"/>
<path fill="#ECC12F" opacity="1.000000" stroke="none" 
	d="
M87.434929,41.037331 
	C84.742218,41.622669 82.529922,42.413059 80.257034,42.672497 
	C79.005676,42.815338 77.222710,42.444881 76.477585,41.601044 
	C75.852684,40.893368 75.931953,38.842468 76.541260,37.983315 
	C77.076515,37.228584 78.946289,36.776123 79.941002,37.091393 
	C89.539116,40.133514 99.262894,38.806721 108.980812,38.260921 
	C110.319038,38.185760 111.720634,38.611153 113.013420,39.042801 
	C113.203598,39.106300 113.131607,41.092663 112.871269,41.171898 
	C111.713768,41.524174 110.440826,41.629238 109.214592,41.601822 
	C102.105644,41.442886 94.998085,41.221226 87.434929,41.037331 
z"/>
<path fill="#ECC233" opacity="1.000000" stroke="none" 
	d="
M96.579613,21.546104 
	C96.551704,26.702366 93.403954,29.338896 90.253578,27.153082 
	C89.101364,26.353651 88.031937,24.504679 88.075966,23.172546 
	C88.120140,21.836138 89.574425,19.475861 90.454651,19.455406 
	C92.423302,19.409658 94.419273,20.539927 96.579613,21.546104 
z"/>
<path fill="#ECC02D" opacity="1.000000" stroke="none" 
	d="
M42.856049,278.551941 
	C41.016560,279.515045 39.267521,280.564667 37.574070,280.481598 
	C36.678448,280.437653 34.943348,278.023499 35.219677,277.374817 
	C35.932949,275.700378 37.373005,273.440277 38.849163,273.165131 
	C42.346825,272.513153 43.299873,275.063080 42.856049,278.551941 
z"/>
<path fill="#EDC337" opacity="1.000000" stroke="none" 
	d="
M99.934776,11.898135 
	C99.523933,9.858996 99.060432,7.875541 99.557442,6.172379 
	C99.722160,5.607918 102.738441,5.143551 103.757126,5.767053 
	C104.767555,6.385503 105.691071,9.324212 105.279083,9.687478 
	C103.944389,10.864341 101.979034,11.325974 99.934776,11.898135 
z"/>
<path fill="#F3F4F9" opacity="1.000000" stroke="none" 
	d="
M216.872131,176.953888 
	C219.961014,176.598022 221.292511,177.343292 221.058167,180.364792 
	C220.793716,183.774185 220.997253,187.219894 220.997253,190.843552 
	C215.509735,190.843552 210.463455,190.843552 205.297668,190.843552 
	C205.297668,186.263382 205.297668,181.907028 205.297668,176.949158 
	C209.261063,176.949158 212.826904,176.949158 216.872131,176.953888 
z"/>
<path fill="#EEEFF4" opacity="1.000000" stroke="none" 
	d="
M212.032471,113.727646 
	C214.781235,113.720818 217.046646,113.720818 219.748398,113.720818 
	C219.893082,115.926216 220.018280,117.834541 220.197708,120.569443 
	C215.945023,120.771378 211.950714,120.961044 207.410202,121.176643 
	C207.189163,118.823303 206.995148,116.757660 206.737823,114.017891 
	C208.457626,113.916588 210.003372,113.825539 212.032471,113.727646 
z"/>
<path fill="#EBEDF2" opacity="1.000000" stroke="none" 
	d="
M372.839752,170.530060 
	C374.324371,172.535309 375.408020,174.556580 376.976013,177.481216 
	C371.449402,177.751831 367.414185,177.949417 363.170807,178.157196 
	C362.770233,175.731400 362.427917,173.658264 361.995880,171.042023 
	C365.643372,170.868790 369.041077,170.707428 372.839752,170.530060 
z"/>
<path fill="#ECEEF3" opacity="1.000000" stroke="none" 
	d="
M291.044739,170.776016 
	C294.462036,170.763260 297.420441,170.763260 300.851410,170.763260 
	C301.033234,172.771210 301.218750,174.820023 301.463959,177.527695 
	C297.178497,177.752319 293.297760,177.955750 288.970184,178.182587 
	C289.187744,175.405762 285.272980,172.321503 291.044739,170.776016 
z"/>
</svg>